<?xml version="1.0" encoding="UTF-8" standalone="no"?>
<!DOCTYPE svg PUBLIC "-//W3C//DTD SVG 1.1//EN"
 "http://www.w3.org/Graphics/SVG/1.1/DTD/svg11.dtd">
<!-- Generated by graphviz version 12.2.1 (0)
 -->
<!-- Title: snakemake_dag Pages: 1 -->
<svg width="1330pt" height="1556pt"
 viewBox="0.00 0.00 1329.88 1556.00" xmlns="http://www.w3.org/2000/svg" xmlns:xlink="http://www.w3.org/1999/xlink">
<g id="graph0" class="graph" transform="scale(1 1) rotate(0) translate(4 1552)">
<title>snakemake_dag</title>
<polygon fill="white" stroke="none" points="-4,4 -4,-1552 1325.88,-1552 1325.88,4 -4,4"/>
<!-- 0 -->
<g id="node1" class="node">
<title>0</title>
<path fill="none" stroke="#56d85b" stroke-width="2" d="M677.88,-36C677.88,-36 647.88,-36 647.88,-36 641.88,-36 635.88,-30 635.88,-24 635.88,-24 635.88,-12 635.88,-12 635.88,-6 641.88,0 647.88,0 647.88,0 677.88,0 677.88,0 683.88,0 689.88,-6 689.88,-12 689.88,-12 689.88,-24 689.88,-24 689.88,-30 683.88,-36 677.88,-36"/>
<text text-anchor="middle" x="662.88" y="-16" font-family="sans" font-size="10.00">all</text>
</g>
<!-- 1 -->
<g id="node2" class="node">
<title>1</title>
<path fill="none" stroke="#56d873" stroke-width="2" d="M91.75,-1548C91.75,-1548 12,-1548 12,-1548 6,-1548 0,-1542 0,-1536 0,-1536 0,-1524 0,-1524 0,-1518 6,-1512 12,-1512 12,-1512 91.75,-1512 91.75,-1512 97.75,-1512 103.75,-1518 103.75,-1524 103.75,-1524 103.75,-1536 103.75,-1536 103.75,-1542 97.75,-1548 91.75,-1548"/>
<text text-anchor="middle" x="51.88" y="-1528" font-family="sans" font-size="10.00">fastp_qc_trim_dna</text>
</g>
<!-- 1&#45;&gt;0 -->
<g id="edge15" class="edge">
<title>1&#45;&gt;0</title>
<path fill="none" stroke="grey" stroke-width="2" d="M45.66,-1511.32C36.87,-1484.71 21.88,-1432.61 21.88,-1387 21.88,-1387 21.88,-1387 21.88,-161 21.88,-105.99 58.32,-95.87 107.88,-72 198.81,-28.2 509.92,-20.59 622.12,-19.27"/>
<polygon fill="grey" stroke="grey" stroke-width="2" points="622.1,-22.77 632.06,-19.17 622.02,-15.77 622.1,-22.77"/>
</g>
<!-- 7 -->
<g id="node8" class="node">
<title>7</title>
<path fill="none" stroke="#566bd8" stroke-width="2" d="M111.25,-1476C111.25,-1476 70.5,-1476 70.5,-1476 64.5,-1476 58.5,-1470 58.5,-1464 58.5,-1464 58.5,-1452 58.5,-1452 58.5,-1446 64.5,-1440 70.5,-1440 70.5,-1440 111.25,-1440 111.25,-1440 117.25,-1440 123.25,-1446 123.25,-1452 123.25,-1452 123.25,-1464 123.25,-1464 123.25,-1470 117.25,-1476 111.25,-1476"/>
<text text-anchor="middle" x="90.88" y="-1456" font-family="sans" font-size="10.00">bwa_mem</text>
</g>
<!-- 1&#45;&gt;7 -->
<g id="edge25" class="edge">
<title>1&#45;&gt;7</title>
<path fill="none" stroke="grey" stroke-width="2" d="M61.72,-1511.34C65.61,-1504.34 70.2,-1496.12 74.56,-1488.28"/>
<polygon fill="grey" stroke="grey" stroke-width="2" points="77.62,-1489.99 79.43,-1479.55 71.5,-1486.58 77.62,-1489.99"/>
</g>
<!-- 2 -->
<g id="node3" class="node">
<title>2</title>
<path fill="none" stroke="#d87556" stroke-width="2" d="M437,-1044C437,-1044 376.75,-1044 376.75,-1044 370.75,-1044 364.75,-1038 364.75,-1032 364.75,-1032 364.75,-1020 364.75,-1020 364.75,-1014 370.75,-1008 376.75,-1008 376.75,-1008 437,-1008 437,-1008 443,-1008 449,-1014 449,-1020 449,-1020 449,-1032 449,-1032 449,-1038 443,-1044 437,-1044"/>
<text text-anchor="middle" x="406.88" y="-1024" font-family="sans" font-size="10.00">coverage_stats</text>
</g>
<!-- 2&#45;&gt;0 -->
<g id="edge5" class="edge">
<title>2&#45;&gt;0</title>
<path fill="none" stroke="grey" stroke-width="2" d="M410.19,-1007.14C414.88,-980.3 422.88,-927.9 422.88,-883 422.88,-883 422.88,-883 422.88,-161 422.88,-69.32 554.21,-35.57 622.57,-24.22"/>
<polygon fill="grey" stroke="grey" stroke-width="2" points="623.01,-27.69 632.35,-22.7 621.93,-20.77 623.01,-27.69"/>
</g>
<!-- 3 -->
<g id="node4" class="node">
<title>3</title>
<path fill="none" stroke="#56d8b9" stroke-width="2" d="M635.12,-1188C635.12,-1188 554.62,-1188 554.62,-1188 548.62,-1188 542.62,-1182 542.62,-1176 542.62,-1176 542.62,-1164 542.62,-1164 542.62,-1158 548.62,-1152 554.62,-1152 554.62,-1152 635.12,-1152 635.12,-1152 641.12,-1152 647.12,-1158 647.12,-1164 647.12,-1164 647.12,-1176 647.12,-1176 647.12,-1182 641.12,-1188 635.12,-1188"/>
<text text-anchor="middle" x="594.88" y="-1168" font-family="sans" font-size="10.00">gather_recal_bams</text>
</g>
<!-- 3&#45;&gt;2 -->
<g id="edge18" class="edge">
<title>3&#45;&gt;2</title>
<path fill="none" stroke="grey" stroke-width="2" d="M571.06,-1151.02C538.01,-1126.05 478.05,-1080.76 440.46,-1052.37"/>
<polygon fill="grey" stroke="grey" stroke-width="2" points="443,-1049.9 432.91,-1046.66 438.78,-1055.48 443,-1049.9"/>
</g>
<!-- 8 -->
<g id="node9" class="node">
<title>8</title>
<path fill="none" stroke="#9fd856" stroke-width="2" d="M754.75,-1116C754.75,-1116 711,-1116 711,-1116 705,-1116 699,-1110 699,-1104 699,-1104 699,-1092 699,-1092 699,-1086 705,-1080 711,-1080 711,-1080 754.75,-1080 754.75,-1080 760.75,-1080 766.75,-1086 766.75,-1092 766.75,-1092 766.75,-1104 766.75,-1104 766.75,-1110 760.75,-1116 754.75,-1116"/>
<text text-anchor="middle" x="732.88" y="-1096" font-family="sans" font-size="10.00">index_bam</text>
</g>
<!-- 3&#45;&gt;8 -->
<g id="edge28" class="edge">
<title>3&#45;&gt;8</title>
<path fill="none" stroke="grey" stroke-width="2" d="M630.06,-1151.15C647.3,-1142.41 668.29,-1131.76 686.8,-1122.37"/>
<polygon fill="grey" stroke="grey" stroke-width="2" points="688.2,-1125.58 695.54,-1117.94 685.04,-1119.34 688.2,-1125.58"/>
</g>
<!-- 11 -->
<g id="node12" class="node">
<title>11</title>
<path fill="none" stroke="#56b9d8" stroke-width="2" d="M297.12,-900C297.12,-900 216.62,-900 216.62,-900 210.62,-900 204.62,-894 204.62,-888 204.62,-888 204.62,-876 204.62,-876 204.62,-870 210.62,-864 216.62,-864 216.62,-864 297.12,-864 297.12,-864 303.12,-864 309.12,-870 309.12,-876 309.12,-876 309.12,-888 309.12,-888 309.12,-894 303.12,-900 297.12,-900"/>
<text text-anchor="middle" x="256.88" y="-880" font-family="sans" font-size="10.00">insert_size_metrics</text>
</g>
<!-- 3&#45;&gt;11 -->
<g id="edge32" class="edge">
<title>3&#45;&gt;11</title>
<path fill="none" stroke="grey" stroke-width="2" d="M541.81,-1165.18C471.91,-1159.08 354.17,-1144.78 322.88,-1116 293,-1088.52 270.65,-969.95 261.46,-913.33"/>
<polygon fill="grey" stroke="grey" stroke-width="2" points="264.95,-912.99 259.93,-903.66 258.04,-914.08 264.95,-912.99"/>
</g>
<!-- 12 -->
<g id="node13" class="node">
<title>12</title>
<path fill="none" stroke="#d89c56" stroke-width="2" d="M379.75,-828C379.75,-828 300,-828 300,-828 294,-828 288,-822 288,-816 288,-816 288,-804 288,-804 288,-798 294,-792 300,-792 300,-792 379.75,-792 379.75,-792 385.75,-792 391.75,-798 391.75,-804 391.75,-804 391.75,-816 391.75,-816 391.75,-822 385.75,-828 379.75,-828"/>
<text text-anchor="middle" x="339.88" y="-808" font-family="sans" font-size="10.00">alignment_metrics</text>
</g>
<!-- 3&#45;&gt;12 -->
<g id="edge33" class="edge">
<title>3&#45;&gt;12</title>
<path fill="none" stroke="grey" stroke-width="2" d="M541.73,-1163.45C466.2,-1152.3 336.88,-1119.67 336.88,-1027 336.88,-1027 336.88,-1027 336.88,-953 336.88,-914.64 337.98,-870.48 338.85,-841.72"/>
<polygon fill="grey" stroke="grey" stroke-width="2" points="342.34,-842.06 339.16,-831.96 335.35,-841.84 342.34,-842.06"/>
</g>
<!-- 28 -->
<g id="node29" class="node">
<title>28</title>
<path fill="none" stroke="#5692d8" stroke-width="2" d="M691.12,-1044C691.12,-1044 634.62,-1044 634.62,-1044 628.62,-1044 622.62,-1038 622.62,-1032 622.62,-1032 622.62,-1020 622.62,-1020 622.62,-1014 628.62,-1008 634.62,-1008 634.62,-1008 691.12,-1008 691.12,-1008 697.12,-1008 703.12,-1014 703.12,-1020 703.12,-1020 703.12,-1032 703.12,-1032 703.12,-1038 697.12,-1044 691.12,-1044"/>
<text text-anchor="middle" x="662.88" y="-1024" font-family="sans" font-size="10.00">varscan2_call</text>
</g>
<!-- 3&#45;&gt;28 -->
<g id="edge69" class="edge">
<title>3&#45;&gt;28</title>
<path fill="none" stroke="grey" stroke-width="2" d="M603.49,-1151.02C614.88,-1127.22 635.11,-1084.97 648.76,-1056.48"/>
<polygon fill="grey" stroke="grey" stroke-width="2" points="651.86,-1058.1 653.03,-1047.57 645.55,-1055.08 651.86,-1058.1"/>
</g>
<!-- 30 -->
<g id="node31" class="node">
<title>30</title>
<path fill="none" stroke="#5682d8" stroke-width="2" d="M767.25,-900C767.25,-900 696.5,-900 696.5,-900 690.5,-900 684.5,-894 684.5,-888 684.5,-888 684.5,-876 684.5,-876 684.5,-870 690.5,-864 696.5,-864 696.5,-864 767.25,-864 767.25,-864 773.25,-864 779.25,-870 779.25,-876 779.25,-876 779.25,-888 779.25,-888 779.25,-894 773.25,-900 767.25,-900"/>
<text text-anchor="middle" x="731.88" y="-880" font-family="sans" font-size="10.00">haplotype_caller</text>
</g>
<!-- 3&#45;&gt;30 -->
<g id="edge73" class="edge">
<title>3&#45;&gt;30</title>
<path fill="none" stroke="grey" stroke-width="2" d="M614.19,-1151.23C644.31,-1123.09 700.21,-1068.9 711.88,-1044 731.61,-1001.85 734.2,-947.04 733.56,-913.47"/>
<polygon fill="grey" stroke="grey" stroke-width="2" points="737.07,-913.8 733.24,-903.92 730.08,-914.03 737.07,-913.8"/>
</g>
<!-- 36 -->
<g id="node37" class="node">
<title>36</title>
<path fill="none" stroke="#56d8c1" stroke-width="2" d="M779.25,-180C779.25,-180 708.5,-180 708.5,-180 702.5,-180 696.5,-174 696.5,-168 696.5,-168 696.5,-156 696.5,-156 696.5,-150 702.5,-144 708.5,-144 708.5,-144 779.25,-144 779.25,-144 785.25,-144 791.25,-150 791.25,-156 791.25,-156 791.25,-168 791.25,-168 791.25,-174 785.25,-180 779.25,-180"/>
<text text-anchor="middle" x="743.88" y="-160" font-family="sans" font-size="10.00">whatshap_phase</text>
</g>
<!-- 3&#45;&gt;36 -->
<g id="edge80" class="edge">
<title>3&#45;&gt;36</title>
<path fill="none" stroke="grey" stroke-width="2" d="M593.23,-1151.23C587.36,-1086.46 567.88,-856.83 567.88,-667 567.88,-667 567.88,-667 567.88,-593 567.88,-415.32 614.08,-371.03 700.88,-216 705.73,-207.33 712.02,-198.65 718.28,-190.9"/>
<polygon fill="grey" stroke="grey" stroke-width="2" points="720.92,-193.2 724.71,-183.3 715.58,-188.67 720.92,-193.2"/>
</g>
<!-- 41 -->
<g id="node42" class="node">
<title>41</title>
<path fill="none" stroke="#bed856" stroke-width="2" d="M554.5,-1044C554.5,-1044 479.25,-1044 479.25,-1044 473.25,-1044 467.25,-1038 467.25,-1032 467.25,-1032 467.25,-1020 467.25,-1020 467.25,-1014 473.25,-1008 479.25,-1008 479.25,-1008 554.5,-1008 554.5,-1008 560.5,-1008 566.5,-1014 566.5,-1020 566.5,-1020 566.5,-1032 566.5,-1032 566.5,-1038 560.5,-1044 554.5,-1044"/>
<text text-anchor="middle" x="516.88" y="-1024" font-family="sans" font-size="10.00">manta_sv_calling</text>
</g>
<!-- 3&#45;&gt;41 -->
<g id="edge88" class="edge">
<title>3&#45;&gt;41</title>
<path fill="none" stroke="grey" stroke-width="2" d="M585,-1151.02C571.87,-1127.12 548.51,-1084.59 532.86,-1056.1"/>
<polygon fill="grey" stroke="grey" stroke-width="2" points="536.01,-1054.57 528.13,-1047.49 529.88,-1057.94 536.01,-1054.57"/>
</g>
<!-- 4 -->
<g id="node5" class="node">
<title>4</title>
<path fill="none" stroke="#56b1d8" stroke-width="2" d="M773.12,-1260C773.12,-1260 692.62,-1260 692.62,-1260 686.62,-1260 680.62,-1254 680.62,-1248 680.62,-1248 680.62,-1236 680.62,-1236 680.62,-1230 686.62,-1224 692.62,-1224 692.62,-1224 773.12,-1224 773.12,-1224 779.12,-1224 785.12,-1230 785.12,-1236 785.12,-1236 785.12,-1248 785.12,-1248 785.12,-1254 779.12,-1260 773.12,-1260"/>
<text text-anchor="middle" x="732.88" y="-1240" font-family="sans" font-size="10.00">apply_bqsr_scatter</text>
</g>
<!-- 4&#45;&gt;3 -->
<g id="edge19" class="edge">
<title>4&#45;&gt;3</title>
<path fill="none" stroke="grey" stroke-width="2" d="M697.69,-1223.15C680.58,-1214.47 659.78,-1203.92 641.38,-1194.59"/>
<polygon fill="grey" stroke="grey" stroke-width="2" points="643.19,-1191.58 632.69,-1190.18 640.03,-1197.83 643.19,-1191.58"/>
</g>
<!-- 4&#45;&gt;8 -->
<g id="edge27" class="edge">
<title>4&#45;&gt;8</title>
<path fill="none" stroke="grey" stroke-width="2" d="M728.2,-1223.02C725.82,-1199.54 725.49,-1158.11 727.21,-1129.64"/>
<polygon fill="grey" stroke="grey" stroke-width="2" points="730.68,-1130.1 727.98,-1119.86 723.7,-1129.55 730.68,-1130.1"/>
</g>
<!-- 17 -->
<g id="node18" class="node">
<title>17</title>
<path fill="none" stroke="#97d856" stroke-width="2" d="M1061.25,-1044C1061.25,-1044 948.5,-1044 948.5,-1044 942.5,-1044 936.5,-1038 936.5,-1032 936.5,-1032 936.5,-1020 936.5,-1020 936.5,-1014 942.5,-1008 948.5,-1008 948.5,-1008 1061.25,-1008 1061.25,-1008 1067.25,-1008 1073.25,-1014 1073.25,-1020 1073.25,-1020 1073.25,-1032 1073.25,-1032 1073.25,-1038 1067.25,-1044 1061.25,-1044"/>
<text text-anchor="middle" x="1004.88" y="-1024" font-family="sans" font-size="10.00">mutect2_somatic_no_pon</text>
</g>
<!-- 4&#45;&gt;17 -->
<g id="edge44" class="edge">
<title>4&#45;&gt;17</title>
<path fill="none" stroke="grey" stroke-width="2" d="M755.6,-1223.12C803.7,-1185.28 915.97,-1096.95 971.94,-1052.91"/>
<polygon fill="grey" stroke="grey" stroke-width="2" points="973.95,-1055.78 979.65,-1046.85 969.62,-1050.28 973.95,-1055.78"/>
</g>
<!-- 20 -->
<g id="node21" class="node">
<title>20</title>
<path fill="none" stroke="#56d8d8" stroke-width="2" d="M906.38,-1044C906.38,-1044 809.38,-1044 809.38,-1044 803.38,-1044 797.38,-1038 797.38,-1032 797.38,-1032 797.38,-1020 797.38,-1020 797.38,-1014 803.38,-1008 809.38,-1008 809.38,-1008 906.38,-1008 906.38,-1008 912.38,-1008 918.38,-1014 918.38,-1020 918.38,-1020 918.38,-1032 918.38,-1032 918.38,-1038 912.38,-1044 906.38,-1044"/>
<text text-anchor="middle" x="857.88" y="-1024" font-family="sans" font-size="10.00">get_pileup_summaries</text>
</g>
<!-- 4&#45;&gt;20 -->
<g id="edge55" class="edge">
<title>4&#45;&gt;20</title>
<path fill="none" stroke="grey" stroke-width="2" d="M743.32,-1223.12C764.92,-1186.14 814.67,-1100.96 840.93,-1056"/>
<polygon fill="grey" stroke="grey" stroke-width="2" points="843.83,-1057.99 845.85,-1047.59 837.78,-1054.46 843.83,-1057.99"/>
</g>
<!-- 5 -->
<g id="node6" class="node">
<title>5</title>
<path fill="none" stroke="#b6d856" stroke-width="2" d="M482.5,-1332C482.5,-1332 413.25,-1332 413.25,-1332 407.25,-1332 401.25,-1326 401.25,-1320 401.25,-1320 401.25,-1308 401.25,-1308 401.25,-1302 407.25,-1296 413.25,-1296 413.25,-1296 482.5,-1296 482.5,-1296 488.5,-1296 494.5,-1302 494.5,-1308 494.5,-1308 494.5,-1320 494.5,-1320 494.5,-1326 488.5,-1332 482.5,-1332"/>
<text text-anchor="middle" x="447.88" y="-1312" font-family="sans" font-size="10.00">mark_duplicates</text>
</g>
<!-- 5&#45;&gt;4 -->
<g id="edge20" class="edge">
<title>5&#45;&gt;4</title>
<path fill="none" stroke="grey" stroke-width="2" d="M495.26,-1301.36C542.34,-1289.8 614.92,-1271.97 667.48,-1259.06"/>
<polygon fill="grey" stroke="grey" stroke-width="2" points="668.23,-1262.48 677.11,-1256.7 666.56,-1255.68 668.23,-1262.48"/>
</g>
<!-- 5&#45;&gt;8 -->
<g id="edge26" class="edge">
<title>5&#45;&gt;8</title>
<path fill="none" stroke="grey" stroke-width="2" d="M495.48,-1313.01C581.16,-1311.9 755.97,-1304.15 793.88,-1260 827.54,-1220.78 787.89,-1161.08 758.61,-1126.47"/>
<polygon fill="grey" stroke="grey" stroke-width="2" points="761.54,-1124.49 752.32,-1119.27 756.27,-1129.1 761.54,-1124.49"/>
</g>
<!-- 10 -->
<g id="node11" class="node">
<title>10</title>
<path fill="none" stroke="#56c9d8" stroke-width="2" d="M258.38,-1044C258.38,-1044 149.38,-1044 149.38,-1044 143.38,-1044 137.38,-1038 137.38,-1032 137.38,-1032 137.38,-1020 137.38,-1020 137.38,-1014 143.38,-1008 149.38,-1008 149.38,-1008 258.38,-1008 258.38,-1008 264.38,-1008 270.38,-1014 270.38,-1020 270.38,-1020 270.38,-1032 270.38,-1032 270.38,-1038 264.38,-1044 258.38,-1044"/>
<text text-anchor="middle" x="203.88" y="-1024" font-family="sans" font-size="10.00">bqsr_recalibrator_scatter</text>
</g>
<!-- 5&#45;&gt;10 -->
<g id="edge30" class="edge">
<title>5&#45;&gt;10</title>
<path fill="none" stroke="grey" stroke-width="2" d="M432.61,-1295.11C391.27,-1246.66 276.94,-1112.64 227.34,-1054.5"/>
<polygon fill="grey" stroke="grey" stroke-width="2" points="230.25,-1052.52 221.1,-1047.19 224.92,-1057.07 230.25,-1052.52"/>
</g>
<!-- 6 -->
<g id="node7" class="node">
<title>6</title>
<path fill="none" stroke="#d8d356" stroke-width="2" d="M137.5,-1404C137.5,-1404 62.25,-1404 62.25,-1404 56.25,-1404 50.25,-1398 50.25,-1392 50.25,-1392 50.25,-1380 50.25,-1380 50.25,-1374 56.25,-1368 62.25,-1368 62.25,-1368 137.5,-1368 137.5,-1368 143.5,-1368 149.5,-1374 149.5,-1380 149.5,-1380 149.5,-1392 149.5,-1392 149.5,-1398 143.5,-1404 137.5,-1404"/>
<text text-anchor="middle" x="99.88" y="-1384" font-family="sans" font-size="10.00">sort_and_fix_tags</text>
</g>
<!-- 6&#45;&gt;5 -->
<g id="edge23" class="edge">
<title>6&#45;&gt;5</title>
<path fill="none" stroke="grey" stroke-width="2" d="M150.48,-1374.82C213.43,-1362.16 320.8,-1340.56 387.85,-1327.07"/>
<polygon fill="grey" stroke="grey" stroke-width="2" points="388.21,-1330.57 397.32,-1325.17 386.83,-1323.71 388.21,-1330.57"/>
</g>
<!-- 13 -->
<g id="node14" class="node">
<title>13</title>
<path fill="none" stroke="#56d8c9" stroke-width="2" d="M104,-1260C104,-1260 61.75,-1260 61.75,-1260 55.75,-1260 49.75,-1254 49.75,-1248 49.75,-1248 49.75,-1236 49.75,-1236 49.75,-1230 55.75,-1224 61.75,-1224 61.75,-1224 104,-1224 104,-1224 110,-1224 116,-1230 116,-1236 116,-1236 116,-1248 116,-1248 116,-1254 110,-1260 104,-1260"/>
<text text-anchor="middle" x="82.88" y="-1240" font-family="sans" font-size="10.00">hs_metrics</text>
</g>
<!-- 6&#45;&gt;13 -->
<g id="edge34" class="edge">
<title>6&#45;&gt;13</title>
<path fill="none" stroke="grey" stroke-width="2" d="M97.72,-1367.02C94.91,-1343.54 89.95,-1302.11 86.54,-1273.64"/>
<polygon fill="grey" stroke="grey" stroke-width="2" points="90.03,-1273.36 85.37,-1263.84 83.08,-1274.19 90.03,-1273.36"/>
</g>
<!-- 7&#45;&gt;6 -->
<g id="edge24" class="edge">
<title>7&#45;&gt;6</title>
<path fill="none" stroke="grey" stroke-width="2" d="M93.15,-1439.34C93.99,-1432.75 94.98,-1425.08 95.93,-1417.67"/>
<polygon fill="grey" stroke="grey" stroke-width="2" points="99.38,-1418.27 97.19,-1407.9 92.44,-1417.38 99.38,-1418.27"/>
</g>
<!-- 8&#45;&gt;2 -->
<g id="edge17" class="edge">
<title>8&#45;&gt;2</title>
<path fill="none" stroke="grey" stroke-width="2" d="M698.25,-1091.83C648.1,-1084.01 552.16,-1067.85 462.24,-1044.98"/>
<polygon fill="grey" stroke="grey" stroke-width="2" points="463.37,-1041.65 452.81,-1042.54 461.62,-1048.43 463.37,-1041.65"/>
</g>
<!-- 8&#45;&gt;4 -->
<g id="edge21" class="edge">
<title>8&#45;&gt;4</title>
<path fill="none" stroke="grey" stroke-width="2" d="M737.53,-1116.84C739.93,-1140.24 740.27,-1181.66 738.55,-1210.18"/>
<polygon fill="grey" stroke="grey" stroke-width="2" points="735.08,-1209.75 737.78,-1220 742.06,-1210.3 735.08,-1209.75"/>
</g>
<!-- 8&#45;&gt;10 -->
<g id="edge31" class="edge">
<title>8&#45;&gt;10</title>
<path fill="none" stroke="grey" stroke-width="2" d="M698.17,-1092.41C614.75,-1081.37 401.26,-1053.12 284,-1037.6"/>
<polygon fill="grey" stroke="grey" stroke-width="2" points="284.6,-1034.15 274.23,-1036.31 283.68,-1041.09 284.6,-1034.15"/>
</g>
<!-- 8&#45;&gt;17 -->
<g id="edge43" class="edge">
<title>8&#45;&gt;17</title>
<path fill="none" stroke="grey" stroke-width="2" d="M767.6,-1088.06C806.57,-1078.04 871.12,-1061.42 923.06,-1048.05"/>
<polygon fill="grey" stroke="grey" stroke-width="2" points="923.89,-1051.46 932.7,-1045.57 922.14,-1044.68 923.89,-1051.46"/>
</g>
<!-- 8&#45;&gt;20 -->
<g id="edge54" class="edge">
<title>8&#45;&gt;20</title>
<path fill="none" stroke="grey" stroke-width="2" d="M764.74,-1079.15C780.02,-1070.6 798.55,-1060.22 815.04,-1050.99"/>
<polygon fill="grey" stroke="grey" stroke-width="2" points="816.41,-1054.23 823.43,-1046.29 812.99,-1048.12 816.41,-1054.23"/>
</g>
<!-- 8&#45;&gt;28 -->
<g id="edge68" class="edge">
<title>8&#45;&gt;28</title>
<path fill="none" stroke="grey" stroke-width="2" d="M715.21,-1079.34C707.56,-1071.69 698.43,-1062.56 689.95,-1054.08"/>
<polygon fill="grey" stroke="grey" stroke-width="2" points="692.46,-1051.64 682.92,-1047.04 687.51,-1056.59 692.46,-1051.64"/>
</g>
<!-- 8&#45;&gt;30 -->
<g id="edge72" class="edge">
<title>8&#45;&gt;30</title>
<path fill="none" stroke="grey" stroke-width="2" d="M737.99,-1079.02C740.63,-1068.84 743.55,-1055.81 744.88,-1044 750.21,-996.3 750.63,-983.65 744.88,-936 743.98,-928.59 742.41,-920.73 740.65,-913.39"/>
<polygon fill="grey" stroke="grey" stroke-width="2" points="744.09,-912.68 738.18,-903.88 737.31,-914.44 744.09,-912.68"/>
</g>
<!-- 8&#45;&gt;41 -->
<g id="edge87" class="edge">
<title>8&#45;&gt;41</title>
<path fill="none" stroke="grey" stroke-width="2" d="M698.17,-1085.75C666.21,-1075.4 618.04,-1059.78 579.38,-1047.26"/>
<polygon fill="grey" stroke="grey" stroke-width="2" points="580.67,-1043.99 570.08,-1044.24 578.51,-1050.65 580.67,-1043.99"/>
</g>
<!-- 9 -->
<g id="node10" class="node">
<title>9</title>
<path fill="none" stroke="#afd856" stroke-width="2" d="M221.38,-972C221.38,-972 136.38,-972 136.38,-972 130.38,-972 124.38,-966 124.38,-960 124.38,-960 124.38,-948 124.38,-948 124.38,-942 130.38,-936 136.38,-936 136.38,-936 221.38,-936 221.38,-936 227.38,-936 233.38,-942 233.38,-948 233.38,-948 233.38,-960 233.38,-960 233.38,-966 227.38,-972 221.38,-972"/>
<text text-anchor="middle" x="178.88" y="-952" font-family="sans" font-size="10.00">bqsr_gather_reports</text>
</g>
<!-- 9&#45;&gt;4 -->
<g id="edge22" class="edge">
<title>9&#45;&gt;4</title>
<path fill="none" stroke="grey" stroke-width="2" d="M156.83,-972.84C136.97,-991.13 113.14,-1020.2 128.88,-1044 189.68,-1136 524.02,-1204.47 667.47,-1230.04"/>
<polygon fill="grey" stroke="grey" stroke-width="2" points="666.48,-1233.42 676.94,-1231.71 667.7,-1226.53 666.48,-1233.42"/>
</g>
<!-- 10&#45;&gt;9 -->
<g id="edge29" class="edge">
<title>10&#45;&gt;9</title>
<path fill="none" stroke="grey" stroke-width="2" d="M197.57,-1007.34C195.16,-1000.59 192.34,-992.69 189.63,-985.11"/>
<polygon fill="grey" stroke="grey" stroke-width="2" points="192.95,-983.99 186.29,-975.75 186.35,-986.35 192.95,-983.99"/>
</g>
<!-- 11&#45;&gt;0 -->
<g id="edge4" class="edge">
<title>11&#45;&gt;0</title>
<path fill="none" stroke="grey" stroke-width="2" d="M256.88,-863.07C256.88,-836.13 256.88,-783.62 256.88,-739 256.88,-739 256.88,-739 256.88,-161 256.88,-98.11 309.68,-98.14 366.88,-72 452.11,-33.04 563.36,-22.66 622.22,-19.93"/>
<polygon fill="grey" stroke="grey" stroke-width="2" points="622.11,-23.44 631.96,-19.55 621.83,-16.45 622.11,-23.44"/>
</g>
<!-- 12&#45;&gt;0 -->
<g id="edge11" class="edge">
<title>12&#45;&gt;0</title>
<path fill="none" stroke="grey" stroke-width="2" d="M343.81,-791.17C349.38,-764.36 358.88,-712.02 358.88,-667 358.88,-667 358.88,-667 358.88,-161 358.88,-115.63 372.28,-98.81 408.88,-72 442.39,-47.44 559.49,-30.76 622.31,-23.35"/>
<polygon fill="grey" stroke="grey" stroke-width="2" points="622.67,-26.83 632.2,-22.22 621.87,-19.88 622.67,-26.83"/>
</g>
<!-- 13&#45;&gt;0 -->
<g id="edge13" class="edge">
<title>13&#45;&gt;0</title>
<path fill="none" stroke="grey" stroke-width="2" d="M80.39,-1223.11C76.87,-1196.22 70.88,-1143.78 70.88,-1099 70.88,-1099 70.88,-1099 70.88,-161 70.88,-47.32 488.87,-24.42 622.39,-20.01"/>
<polygon fill="grey" stroke="grey" stroke-width="2" points="622.2,-23.52 632.09,-19.71 621.99,-16.52 622.2,-23.52"/>
</g>
<!-- 14 -->
<g id="node15" class="node">
<title>14</title>
<path fill="none" stroke="#d8a456" stroke-width="2" d="M1054.75,-756C1054.75,-756 993,-756 993,-756 987,-756 981,-750 981,-744 981,-744 981,-732 981,-732 981,-726 987,-720 993,-720 993,-720 1054.75,-720 1054.75,-720 1060.75,-720 1066.75,-726 1066.75,-732 1066.75,-732 1066.75,-744 1066.75,-744 1066.75,-750 1060.75,-756 1054.75,-756"/>
<text text-anchor="middle" x="1023.88" y="-736" font-family="sans" font-size="10.00">mutect2_caller</text>
</g>
<!-- 14&#45;&gt;0 -->
<g id="edge14" class="edge">
<title>14&#45;&gt;0</title>
<path fill="none" stroke="grey" stroke-width="2" d="M1024.34,-719.09C1024.94,-689.32 1025.41,-627.8 1020.88,-576 1013.14,-487.71 989.88,-467.63 989.88,-379 989.88,-379 989.88,-379 989.88,-161 989.88,-118.33 986.96,-98.94 953.88,-72 916,-41.16 773.71,-26.89 703.12,-21.59"/>
<polygon fill="grey" stroke="grey" stroke-width="2" points="703.65,-18.12 693.43,-20.89 703.15,-25.1 703.65,-18.12"/>
</g>
<!-- 18 -->
<g id="node19" class="node">
<title>18</title>
<path fill="none" stroke="#d8b456" stroke-width="2" d="M949,-684C949,-684 912.75,-684 912.75,-684 906.75,-684 900.75,-678 900.75,-672 900.75,-672 900.75,-660 900.75,-660 900.75,-654 906.75,-648 912.75,-648 912.75,-648 949,-648 949,-648 955,-648 961,-654 961,-660 961,-660 961,-672 961,-672 961,-678 955,-684 949,-684"/>
<text text-anchor="middle" x="930.88" y="-664" font-family="sans" font-size="10.00">index_vcf</text>
</g>
<!-- 14&#45;&gt;18 -->
<g id="edge51" class="edge">
<title>14&#45;&gt;18</title>
<path fill="none" stroke="grey" stroke-width="2" d="M994.2,-719.15C982.8,-711.17 969.91,-701.61 958.7,-692.87"/>
<polygon fill="grey" stroke="grey" stroke-width="2" points="960.95,-690.18 950.94,-686.7 956.59,-695.66 960.95,-690.18"/>
</g>
<!-- 24 -->
<g id="node25" class="node">
<title>24</title>
<path fill="none" stroke="#d8bc56" stroke-width="2" d="M724,-612C724,-612 645.75,-612 645.75,-612 639.75,-612 633.75,-606 633.75,-600 633.75,-600 633.75,-588 633.75,-588 633.75,-582 639.75,-576 645.75,-576 645.75,-576 724,-576 724,-576 730,-576 736,-582 736,-588 736,-588 736,-600 736,-600 736,-606 730,-612 724,-612"/>
<text text-anchor="middle" x="684.88" y="-592" font-family="sans" font-size="10.00">annotate_gnomad</text>
</g>
<!-- 14&#45;&gt;24 -->
<g id="edge65" class="edge">
<title>14&#45;&gt;24</title>
<path fill="none" stroke="grey" stroke-width="2" d="M1018.11,-719.17C1010.49,-698.59 995,-665.36 969.88,-648 934.97,-623.88 822.39,-608.54 749.61,-600.88"/>
<polygon fill="grey" stroke="grey" stroke-width="2" points="750.27,-597.43 739.97,-599.89 749.56,-604.39 750.27,-597.43"/>
</g>
<!-- 31 -->
<g id="node32" class="node">
<title>31</title>
<path fill="none" stroke="#d88d56" stroke-width="2" d="M1129.5,-468C1129.5,-468 1030.25,-468 1030.25,-468 1024.25,-468 1018.25,-462 1018.25,-456 1018.25,-456 1018.25,-444 1018.25,-444 1018.25,-438 1024.25,-432 1030.25,-432 1030.25,-432 1129.5,-432 1129.5,-432 1135.5,-432 1141.5,-438 1141.5,-444 1141.5,-444 1141.5,-456 1141.5,-456 1141.5,-462 1135.5,-468 1129.5,-468"/>
<text text-anchor="middle" x="1079.88" y="-448" font-family="sans" font-size="10.00">rna_variant_validation</text>
</g>
<!-- 14&#45;&gt;31 -->
<g id="edge74" class="edge">
<title>14&#45;&gt;31</title>
<path fill="none" stroke="grey" stroke-width="2" d="M1036.36,-719.21C1042.67,-709.3 1049.84,-696.47 1053.88,-684 1076.49,-614.14 1080.14,-527.03 1080.33,-481.68"/>
<polygon fill="grey" stroke="grey" stroke-width="2" points="1083.83,-481.77 1080.3,-471.78 1076.83,-481.79 1083.83,-481.77"/>
</g>
<!-- 15 -->
<g id="node16" class="node">
<title>15</title>
<path fill="none" stroke="#56d8a2" stroke-width="2" d="M1022.38,-828C1022.38,-828 937.38,-828 937.38,-828 931.38,-828 925.38,-822 925.38,-816 925.38,-816 925.38,-804 925.38,-804 925.38,-798 931.38,-792 937.38,-792 937.38,-792 1022.38,-792 1022.38,-792 1028.38,-792 1034.38,-798 1034.38,-804 1034.38,-804 1034.38,-816 1034.38,-816 1034.38,-822 1028.38,-828 1022.38,-828"/>
<text text-anchor="middle" x="979.88" y="-808" font-family="sans" font-size="10.00">gather_vcfs_no_pon</text>
</g>
<!-- 15&#45;&gt;14 -->
<g id="edge35" class="edge">
<title>15&#45;&gt;14</title>
<path fill="none" stroke="grey" stroke-width="2" d="M990.98,-791.34C995.48,-784.18 1000.79,-775.73 1005.82,-767.73"/>
<polygon fill="grey" stroke="grey" stroke-width="2" points="1008.65,-769.79 1011.01,-759.46 1002.73,-766.07 1008.65,-769.79"/>
</g>
<!-- 15&#45;&gt;18 -->
<g id="edge48" class="edge">
<title>15&#45;&gt;18</title>
<path fill="none" stroke="grey" stroke-width="2" d="M969,-791.02C958.46,-767.44 943.75,-725.73 935.67,-697.25"/>
<polygon fill="grey" stroke="grey" stroke-width="2" points="939.1,-696.53 933.15,-687.76 932.33,-698.33 939.1,-696.53"/>
</g>
<!-- 16 -->
<g id="node17" class="node">
<title>16</title>
<path fill="none" stroke="#88d856" stroke-width="2" d="M979.38,-900C979.38,-900 900.38,-900 900.38,-900 894.38,-900 888.38,-894 888.38,-888 888.38,-888 888.38,-876 888.38,-876 888.38,-870 894.38,-864 900.38,-864 900.38,-864 979.38,-864 979.38,-864 985.38,-864 991.38,-870 991.38,-876 991.38,-876 991.38,-888 991.38,-888 991.38,-894 985.38,-900 979.38,-900"/>
<text text-anchor="middle" x="939.88" y="-880" font-family="sans" font-size="10.00">filter_mutect_calls</text>
</g>
<!-- 16&#45;&gt;15 -->
<g id="edge37" class="edge">
<title>16&#45;&gt;15</title>
<path fill="none" stroke="grey" stroke-width="2" d="M949.97,-863.34C954.01,-856.26 958.78,-847.92 963.3,-840"/>
<polygon fill="grey" stroke="grey" stroke-width="2" points="966.22,-841.95 968.14,-831.53 960.14,-838.48 966.22,-841.95"/>
</g>
<!-- 16&#45;&gt;18 -->
<g id="edge46" class="edge">
<title>16&#45;&gt;18</title>
<path fill="none" stroke="grey" stroke-width="2" d="M922.17,-863.45C916.06,-853.41 910.44,-840.37 907.88,-828 898.5,-782.85 906.93,-729.31 916.55,-696.77"/>
<polygon fill="grey" stroke="grey" stroke-width="2" points="919.82,-698.06 919.61,-687.46 913.16,-695.87 919.82,-698.06"/>
</g>
<!-- 17&#45;&gt;16 -->
<g id="edge41" class="edge">
<title>17&#45;&gt;16</title>
<path fill="none" stroke="grey" stroke-width="2" d="M1074.03,-1009.93C1124.4,-995.68 1179.37,-971.21 1151.88,-936 1133.84,-912.9 1060.39,-898.38 1004.96,-890.5"/>
<polygon fill="grey" stroke="grey" stroke-width="2" points="1005.75,-887.07 995.36,-889.19 1004.8,-894.01 1005.75,-887.07"/>
</g>
<!-- 17&#45;&gt;18 -->
<g id="edge45" class="edge">
<title>17&#45;&gt;18</title>
<path fill="none" stroke="grey" stroke-width="2" d="M935.64,-1008.11C888.67,-996.05 833.74,-980.5 825.88,-972 798.4,-942.31 806.88,-923.45 806.88,-883 806.88,-883 806.88,-883 806.88,-809 806.88,-757.83 853.11,-716.21 889.12,-691.55"/>
<polygon fill="grey" stroke="grey" stroke-width="2" points="890.95,-694.53 897.38,-686.11 887.1,-688.69 890.95,-694.53"/>
</g>
<!-- 21 -->
<g id="node22" class="node">
<title>21</title>
<path fill="none" stroke="#ced856" stroke-width="2" d="M1130.75,-972C1130.75,-972 997,-972 997,-972 991,-972 985,-966 985,-960 985,-960 985,-948 985,-948 985,-942 991,-936 997,-936 997,-936 1130.75,-936 1130.75,-936 1136.75,-936 1142.75,-942 1142.75,-948 1142.75,-948 1142.75,-960 1142.75,-960 1142.75,-966 1136.75,-972 1130.75,-972"/>
<text text-anchor="middle" x="1063.88" y="-952" font-family="sans" font-size="10.00">learn_read_orientation_model</text>
</g>
<!-- 17&#45;&gt;21 -->
<g id="edge56" class="edge">
<title>17&#45;&gt;21</title>
<path fill="none" stroke="grey" stroke-width="2" d="M1019.76,-1007.34C1026.07,-999.85 1033.58,-990.95 1040.59,-982.63"/>
<polygon fill="grey" stroke="grey" stroke-width="2" points="1043.07,-985.12 1046.84,-975.22 1037.71,-980.61 1043.07,-985.12"/>
</g>
<!-- 18&#45;&gt;14 -->
<g id="edge36" class="edge">
<title>18&#45;&gt;14</title>
<path fill="none" stroke="grey" stroke-width="2" d="M960.63,-684.9C972.07,-692.91 985,-702.51 996.23,-711.27"/>
<polygon fill="grey" stroke="grey" stroke-width="2" points="993.99,-713.96 1003.99,-717.45 998.35,-708.48 993.99,-713.96"/>
</g>
<!-- 18&#45;&gt;15 -->
<g id="edge38" class="edge">
<title>18&#45;&gt;15</title>
<path fill="none" stroke="grey" stroke-width="2" d="M941.69,-684.84C952.2,-708.34 966.92,-750.04 975.03,-778.57"/>
<polygon fill="grey" stroke="grey" stroke-width="2" points="971.61,-779.33 977.56,-788.09 978.37,-777.53 971.61,-779.33"/>
</g>
<!-- 18&#45;&gt;16 -->
<g id="edge40" class="edge">
<title>18&#45;&gt;16</title>
<path fill="none" stroke="grey" stroke-width="2" d="M931.54,-684.59C927.6,-714.4 915.21,-776.63 925.88,-828 927.5,-835.83 930.35,-843.92 933.22,-851.36"/>
<polygon fill="grey" stroke="grey" stroke-width="2" points="929.96,-852.64 936.9,-860.64 936.47,-850.05 929.96,-852.64"/>
</g>
<!-- 22 -->
<g id="node23" class="node">
<title>22</title>
<path fill="none" stroke="#78d856" stroke-width="2" d="M791.75,-468C791.75,-468 736,-468 736,-468 730,-468 724,-462 724,-456 724,-456 724,-444 724,-444 724,-438 730,-432 736,-432 736,-432 791.75,-432 791.75,-432 797.75,-432 803.75,-438 803.75,-444 803.75,-444 803.75,-456 803.75,-456 803.75,-462 797.75,-468 791.75,-468"/>
<text text-anchor="middle" x="763.88" y="-448" font-family="sans" font-size="10.00">vep_annotate</text>
</g>
<!-- 18&#45;&gt;22 -->
<g id="edge57" class="edge">
<title>18&#45;&gt;22</title>
<path fill="none" stroke="grey" stroke-width="2" d="M899.9,-650.45C871.13,-636.76 831.83,-617.55 825.88,-612 788.56,-577.24 773.46,-517.51 767.52,-481.39"/>
<polygon fill="grey" stroke="grey" stroke-width="2" points="771.03,-481.19 766.11,-471.8 764.11,-482.2 771.03,-481.19"/>
</g>
<!-- 23 -->
<g id="node24" class="node">
<title>23</title>
<path fill="none" stroke="#56d8a9" stroke-width="2" d="M875.62,-540C875.62,-540 804.12,-540 804.12,-540 798.12,-540 792.12,-534 792.12,-528 792.12,-528 792.12,-516 792.12,-516 792.12,-510 798.12,-504 804.12,-504 804.12,-504 875.62,-504 875.62,-504 881.62,-504 887.62,-510 887.62,-516 887.62,-516 887.62,-528 887.62,-528 887.62,-534 881.62,-540 875.62,-540"/>
<text text-anchor="middle" x="839.88" y="-520" font-family="sans" font-size="10.00">annotate_cosmic</text>
</g>
<!-- 18&#45;&gt;23 -->
<g id="edge61" class="edge">
<title>18&#45;&gt;23</title>
<path fill="none" stroke="grey" stroke-width="2" d="M900.07,-654.46C873.07,-643.16 837.44,-625.09 829.88,-612 819.67,-594.34 820.25,-571.24 824.45,-553"/>
<polygon fill="grey" stroke="grey" stroke-width="2" points="827.74,-554.21 827.18,-543.63 821.02,-552.24 827.74,-554.21"/>
</g>
<!-- 18&#45;&gt;24 -->
<g id="edge66" class="edge">
<title>18&#45;&gt;24</title>
<path fill="none" stroke="grey" stroke-width="2" d="M900.12,-654.66C894.37,-652.29 888.47,-649.91 882.88,-648 825.24,-628.28 806.35,-628.16 749.16,-614.06"/>
<polygon fill="grey" stroke="grey" stroke-width="2" points="750.25,-610.73 739.7,-611.68 748.54,-617.52 750.25,-610.73"/>
</g>
<!-- 19 -->
<g id="node20" class="node">
<title>19</title>
<path fill="none" stroke="#d85656" stroke-width="2" d="M955,-972C955,-972 846.75,-972 846.75,-972 840.75,-972 834.75,-966 834.75,-960 834.75,-960 834.75,-948 834.75,-948 834.75,-942 840.75,-936 846.75,-936 846.75,-936 955,-936 955,-936 961,-936 967,-942 967,-948 967,-948 967,-960 967,-960 967,-966 961,-972 955,-972"/>
<text text-anchor="middle" x="900.88" y="-952" font-family="sans" font-size="10.00">calculate_contamination</text>
</g>
<!-- 19&#45;&gt;16 -->
<g id="edge39" class="edge">
<title>19&#45;&gt;16</title>
<path fill="none" stroke="grey" stroke-width="2" d="M910.72,-935.34C914.61,-928.34 919.2,-920.12 923.56,-912.28"/>
<polygon fill="grey" stroke="grey" stroke-width="2" points="926.62,-913.99 928.43,-903.55 920.5,-910.58 926.62,-913.99"/>
</g>
<!-- 20&#45;&gt;19 -->
<g id="edge53" class="edge">
<title>20&#45;&gt;19</title>
<path fill="none" stroke="grey" stroke-width="2" d="M868.73,-1007.34C873.12,-1000.18 878.31,-991.73 883.23,-983.73"/>
<polygon fill="grey" stroke="grey" stroke-width="2" points="886.04,-985.83 888.29,-975.48 880.08,-982.17 886.04,-985.83"/>
</g>
<!-- 21&#45;&gt;16 -->
<g id="edge42" class="edge">
<title>21&#45;&gt;16</title>
<path fill="none" stroke="grey" stroke-width="2" d="M1032.26,-935.15C1017.11,-926.6 998.73,-916.22 982.37,-906.99"/>
<polygon fill="grey" stroke="grey" stroke-width="2" points="984.49,-904.17 974.06,-902.3 981.05,-910.26 984.49,-904.17"/>
</g>
<!-- 22&#45;&gt;0 -->
<g id="edge2" class="edge">
<title>22&#45;&gt;0</title>
<path fill="none" stroke="grey" stroke-width="2" d="M757.25,-431.03C744.78,-396.67 717.58,-319.07 700.88,-252 693.02,-220.45 693.26,-212.07 687.88,-180 680.25,-134.6 672.22,-81.85 667.38,-49.45"/>
<polygon fill="grey" stroke="grey" stroke-width="2" points="670.89,-49.26 665.95,-39.89 663.96,-50.29 670.89,-49.26"/>
</g>
<!-- 29 -->
<g id="node30" class="node">
<title>29</title>
<path fill="none" stroke="#56d87b" stroke-width="2" d="M928.88,-396C928.88,-396 822.88,-396 822.88,-396 816.88,-396 810.88,-390 810.88,-384 810.88,-384 810.88,-372 810.88,-372 810.88,-366 816.88,-360 822.88,-360 822.88,-360 928.88,-360 928.88,-360 934.88,-360 940.88,-366 940.88,-372 940.88,-372 940.88,-384 940.88,-384 940.88,-390 934.88,-396 928.88,-396"/>
<text text-anchor="middle" x="875.88" y="-376" font-family="sans" font-size="10.00">report_somatic_variants</text>
</g>
<!-- 22&#45;&gt;29 -->
<g id="edge70" class="edge">
<title>22&#45;&gt;29</title>
<path fill="none" stroke="grey" stroke-width="2" d="M792.43,-431.15C805.85,-422.76 822.08,-412.62 836.64,-403.52"/>
<polygon fill="grey" stroke="grey" stroke-width="2" points="838.18,-406.68 844.81,-398.42 834.47,-400.75 838.18,-406.68"/>
</g>
<!-- 37 -->
<g id="node38" class="node">
<title>37</title>
<path fill="none" stroke="#56d882" stroke-width="2" d="M815.5,-252C815.5,-252 722.25,-252 722.25,-252 716.25,-252 710.25,-246 710.25,-240 710.25,-240 710.25,-228 710.25,-228 710.25,-222 716.25,-216 722.25,-216 722.25,-216 815.5,-216 815.5,-216 821.5,-216 827.5,-222 827.5,-228 827.5,-228 827.5,-240 827.5,-240 827.5,-246 821.5,-252 815.5,-252"/>
<text text-anchor="middle" x="768.88" y="-232" font-family="sans" font-size="10.00">filter_vcf_for_phasing</text>
</g>
<!-- 22&#45;&gt;37 -->
<g id="edge81" class="edge">
<title>22&#45;&gt;37</title>
<path fill="none" stroke="grey" stroke-width="2" d="M764.29,-431.12C765.15,-394.62 767.1,-311.13 768.16,-265.74"/>
<polygon fill="grey" stroke="grey" stroke-width="2" points="771.65,-266.08 768.38,-256 764.65,-265.92 771.65,-266.08"/>
</g>
<!-- 23&#45;&gt;18 -->
<g id="edge50" class="edge">
<title>23&#45;&gt;18</title>
<path fill="none" stroke="grey" stroke-width="2" d="M841.3,-540.72C839.17,-559.7 835.19,-590.06 847.88,-612 852.97,-620.81 870.79,-631.89 888.69,-641.63"/>
<polygon fill="grey" stroke="grey" stroke-width="2" points="886.88,-644.63 897.35,-646.23 890.16,-638.45 886.88,-644.63"/>
</g>
<!-- 23&#45;&gt;22 -->
<g id="edge58" class="edge">
<title>23&#45;&gt;22</title>
<path fill="none" stroke="grey" stroke-width="2" d="M820.7,-503.34C812.21,-495.52 802.05,-486.16 792.68,-477.53"/>
<polygon fill="grey" stroke="grey" stroke-width="2" points="795.26,-475.15 785.54,-470.95 790.52,-480.3 795.26,-475.15"/>
</g>
<!-- 24&#45;&gt;18 -->
<g id="edge52" class="edge">
<title>24&#45;&gt;18</title>
<path fill="none" stroke="grey" stroke-width="2" d="M736.73,-606.29C744.21,-608.21 751.76,-610.17 758.88,-612 817.15,-627.01 836.38,-627.02 887.6,-643.58"/>
<polygon fill="grey" stroke="grey" stroke-width="2" points="886.33,-646.84 896.92,-646.68 888.54,-640.2 886.33,-646.84"/>
</g>
<!-- 24&#45;&gt;23 -->
<g id="edge60" class="edge">
<title>24&#45;&gt;23</title>
<path fill="none" stroke="grey" stroke-width="2" d="M724.39,-575.15C743.9,-566.34 767.68,-555.61 788.57,-546.17"/>
<polygon fill="grey" stroke="grey" stroke-width="2" points="789.73,-549.49 797.41,-542.18 786.85,-543.11 789.73,-549.49"/>
</g>
<!-- 25 -->
<g id="node26" class="node">
<title>25</title>
<path fill="none" stroke="#d89556" stroke-width="2" d="M870.5,-684C870.5,-684 723.25,-684 723.25,-684 717.25,-684 711.25,-678 711.25,-672 711.25,-672 711.25,-660 711.25,-660 711.25,-654 717.25,-648 723.25,-648 723.25,-648 870.5,-648 870.5,-648 876.5,-648 882.5,-654 882.5,-660 882.5,-660 882.5,-672 882.5,-672 882.5,-678 876.5,-684 870.5,-684"/>
<text text-anchor="middle" x="796.88" y="-664" font-family="sans" font-size="10.00">prepare_gnomad_for_annotation</text>
</g>
<!-- 25&#45;&gt;24 -->
<g id="edge64" class="edge">
<title>25&#45;&gt;24</title>
<path fill="none" stroke="grey" stroke-width="2" d="M768.32,-647.15C754.9,-638.76 738.67,-628.62 724.11,-619.52"/>
<polygon fill="grey" stroke="grey" stroke-width="2" points="726.28,-616.75 715.94,-614.42 722.57,-622.68 726.28,-616.75"/>
</g>
<!-- 26 -->
<g id="node27" class="node">
<title>26</title>
<path fill="none" stroke="#59d856" stroke-width="2" d="M1000.12,-612C1000.12,-612 859.62,-612 859.62,-612 853.62,-612 847.62,-606 847.62,-600 847.62,-600 847.62,-588 847.62,-588 847.62,-582 853.62,-576 859.62,-576 859.62,-576 1000.12,-576 1000.12,-576 1006.12,-576 1012.12,-582 1012.12,-588 1012.12,-588 1012.12,-600 1012.12,-600 1012.12,-606 1006.12,-612 1000.12,-612"/>
<text text-anchor="middle" x="929.88" y="-592" font-family="sans" font-size="10.00">prepare_cosmic_for_annotation</text>
</g>
<!-- 26&#45;&gt;23 -->
<g id="edge59" class="edge">
<title>26&#45;&gt;23</title>
<path fill="none" stroke="grey" stroke-width="2" d="M907.16,-575.34C896.8,-567.27 884.32,-557.57 872.94,-548.72"/>
<polygon fill="grey" stroke="grey" stroke-width="2" points="875.32,-546.14 865.28,-542.76 871.03,-551.66 875.32,-546.14"/>
</g>
<!-- 27 -->
<g id="node28" class="node">
<title>27</title>
<path fill="none" stroke="#56a9d8" stroke-width="2" d="M687.38,-756C687.38,-756 608.38,-756 608.38,-756 602.38,-756 596.38,-750 596.38,-744 596.38,-744 596.38,-732 596.38,-732 596.38,-726 602.38,-720 608.38,-720 608.38,-720 687.38,-720 687.38,-720 693.38,-720 699.38,-726 699.38,-732 699.38,-732 699.38,-744 699.38,-744 699.38,-750 693.38,-756 687.38,-756"/>
<text text-anchor="middle" x="647.88" y="-736" font-family="sans" font-size="10.00">varscan2_reformat</text>
</g>
<!-- 27&#45;&gt;0 -->
<g id="edge6" class="edge">
<title>27&#45;&gt;0</title>
<path fill="none" stroke="grey" stroke-width="2" d="M638.97,-719.12C626.64,-692.68 605.88,-641.28 605.88,-595 605.88,-595 605.88,-595 605.88,-161 605.88,-119.39 627.21,-75.54 643.78,-47.77"/>
<polygon fill="grey" stroke="grey" stroke-width="2" points="646.62,-49.82 648.91,-39.48 640.67,-46.14 646.62,-49.82"/>
</g>
<!-- 27&#45;&gt;18 -->
<g id="edge47" class="edge">
<title>27&#45;&gt;18</title>
<path fill="none" stroke="grey" stroke-width="2" d="M700.07,-728.74C747.28,-720.59 818.76,-706.56 888.02,-684.94"/>
<polygon fill="grey" stroke="grey" stroke-width="2" points="888.66,-688.41 897.12,-682.03 886.53,-681.74 888.66,-688.41"/>
</g>
<!-- 27&#45;&gt;24 -->
<g id="edge62" class="edge">
<title>27&#45;&gt;24</title>
<path fill="none" stroke="grey" stroke-width="2" d="M651.74,-719.19C655.73,-701.16 662.28,-672.53 668.88,-648 670.89,-640.48 673.24,-632.41 675.5,-624.9"/>
<polygon fill="grey" stroke="grey" stroke-width="2" points="678.8,-626.07 678.38,-615.48 672.11,-624.02 678.8,-626.07"/>
</g>
<!-- 28&#45;&gt;27 -->
<g id="edge67" class="edge">
<title>28&#45;&gt;27</title>
<path fill="none" stroke="grey" stroke-width="2" d="M661.94,-1007.11C659.44,-959.56 652.63,-829.6 649.49,-769.83"/>
<polygon fill="grey" stroke="grey" stroke-width="2" points="652.99,-769.71 648.97,-759.91 646,-770.08 652.99,-769.71"/>
</g>
<!-- 29&#45;&gt;0 -->
<g id="edge3" class="edge">
<title>29&#45;&gt;0</title>
<path fill="none" stroke="grey" stroke-width="2" d="M901.43,-359.02C912.71,-349.79 925.14,-337.63 932.88,-324 952.83,-288.82 951.88,-275.45 951.88,-235 951.88,-235 951.88,-235 951.88,-161 951.88,-120.14 958.56,-100.07 928.88,-72 896.86,-41.74 769.55,-27.4 703.34,-21.87"/>
<polygon fill="grey" stroke="grey" stroke-width="2" points="703.84,-18.4 693.6,-21.1 703.29,-25.38 703.84,-18.4"/>
</g>
<!-- 38 -->
<g id="node39" class="node">
<title>38</title>
<path fill="none" stroke="#56d863" stroke-width="2" d="M911.38,-324C911.38,-324 796.38,-324 796.38,-324 790.38,-324 784.38,-318 784.38,-312 784.38,-312 784.38,-300 784.38,-300 784.38,-294 790.38,-288 796.38,-288 796.38,-288 911.38,-288 911.38,-288 917.38,-288 923.38,-294 923.38,-300 923.38,-300 923.38,-312 923.38,-312 923.38,-318 917.38,-324 911.38,-324"/>
<text text-anchor="middle" x="853.88" y="-304" font-family="sans" font-size="10.00">pause_for_manual_review</text>
</g>
<!-- 29&#45;&gt;38 -->
<g id="edge83" class="edge">
<title>29&#45;&gt;38</title>
<path fill="none" stroke="grey" stroke-width="2" d="M870.32,-359.34C868.2,-352.59 865.72,-344.69 863.34,-337.11"/>
<polygon fill="grey" stroke="grey" stroke-width="2" points="866.75,-336.28 860.41,-327.79 860.07,-338.38 866.75,-336.28"/>
</g>
<!-- 30&#45;&gt;18 -->
<g id="edge49" class="edge">
<title>30&#45;&gt;18</title>
<path fill="none" stroke="grey" stroke-width="2" d="M736.61,-863.15C746.84,-825.73 771.81,-740.78 792.88,-720 823.47,-689.81 844.68,-699.34 887.77,-685.14"/>
<polygon fill="grey" stroke="grey" stroke-width="2" points="888.83,-688.48 897.03,-681.76 886.43,-681.91 888.83,-688.48"/>
</g>
<!-- 30&#45;&gt;24 -->
<g id="edge63" class="edge">
<title>30&#45;&gt;24</title>
<path fill="none" stroke="grey" stroke-width="2" d="M729.61,-863.09C725.79,-833.31 717.6,-771.79 708.88,-720 706.17,-703.93 704.96,-700.01 701.88,-684 698.12,-664.5 693.93,-642.59 690.65,-625.38"/>
<polygon fill="grey" stroke="grey" stroke-width="2" points="694.12,-624.88 688.81,-615.71 687.24,-626.19 694.12,-624.88"/>
</g>
<!-- 31&#45;&gt;0 -->
<g id="edge9" class="edge">
<title>31&#45;&gt;0</title>
<path fill="none" stroke="grey" stroke-width="2" d="M1074.49,-431.26C1066.87,-404.56 1053.88,-352.36 1053.88,-307 1053.88,-307 1053.88,-307 1053.88,-161 1053.88,-115.63 1041.15,-97.86 1003.88,-72 955.89,-38.71 783.2,-25.38 703.59,-20.92"/>
<polygon fill="grey" stroke="grey" stroke-width="2" points="703.95,-17.44 693.78,-20.4 703.57,-24.43 703.95,-17.44"/>
</g>
<!-- 31&#45;&gt;29 -->
<g id="edge71" class="edge">
<title>31&#45;&gt;29</title>
<path fill="none" stroke="grey" stroke-width="2" d="M1027.6,-431.06C1000.97,-421.93 968.35,-410.73 940.19,-401.07"/>
<polygon fill="grey" stroke="grey" stroke-width="2" points="941.47,-397.81 930.87,-397.87 939.2,-404.43 941.47,-397.81"/>
</g>
<!-- 32 -->
<g id="node33" class="node">
<title>32</title>
<path fill="none" stroke="#8fd856" stroke-width="2" d="M1200.25,-540C1200.25,-540 1117.5,-540 1117.5,-540 1111.5,-540 1105.5,-534 1105.5,-528 1105.5,-528 1105.5,-516 1105.5,-516 1105.5,-510 1111.5,-504 1117.5,-504 1117.5,-504 1200.25,-504 1200.25,-504 1206.25,-504 1212.25,-510 1212.25,-516 1212.25,-516 1212.25,-528 1212.25,-528 1212.25,-534 1206.25,-540 1200.25,-540"/>
<text text-anchor="middle" x="1158.88" y="-520" font-family="sans" font-size="10.00">split_n_cigar_reads</text>
</g>
<!-- 32&#45;&gt;0 -->
<g id="edge1" class="edge">
<title>32&#45;&gt;0</title>
<path fill="none" stroke="grey" stroke-width="2" d="M1161.15,-503.1C1164.38,-476.21 1169.88,-423.76 1169.88,-379 1169.88,-379 1169.88,-379 1169.88,-161 1169.88,-64.4 824.29,-30.52 703.76,-21.64"/>
<polygon fill="grey" stroke="grey" stroke-width="2" points="704.1,-18.15 693.88,-20.93 703.6,-25.13 704.1,-18.15"/>
</g>
<!-- 32&#45;&gt;31 -->
<g id="edge75" class="edge">
<title>32&#45;&gt;31</title>
<path fill="none" stroke="grey" stroke-width="2" d="M1138.94,-503.34C1130.12,-495.52 1119.56,-486.16 1109.82,-477.53"/>
<polygon fill="grey" stroke="grey" stroke-width="2" points="1112.15,-474.92 1102.34,-470.91 1107.51,-480.16 1112.15,-474.92"/>
</g>
<!-- 33 -->
<g id="node34" class="node">
<title>33</title>
<path fill="none" stroke="#d87d56" stroke-width="2" d="M1285,-612C1285,-612 1194.75,-612 1194.75,-612 1188.75,-612 1182.75,-606 1182.75,-600 1182.75,-600 1182.75,-588 1182.75,-588 1182.75,-582 1188.75,-576 1194.75,-576 1194.75,-576 1285,-576 1285,-576 1291,-576 1297,-582 1297,-588 1297,-588 1297,-600 1297,-600 1297,-606 1291,-612 1285,-612"/>
<text text-anchor="middle" x="1239.88" y="-592" font-family="sans" font-size="10.00">mark_duplicates_rna</text>
</g>
<!-- 33&#45;&gt;0 -->
<g id="edge8" class="edge">
<title>33&#45;&gt;0</title>
<path fill="none" stroke="grey" stroke-width="2" d="M1239.88,-575.07C1239.88,-548.13 1239.88,-495.62 1239.88,-451 1239.88,-451 1239.88,-451 1239.88,-161 1239.88,-50.4 835.12,-25.46 703.61,-20.27"/>
<polygon fill="grey" stroke="grey" stroke-width="2" points="703.85,-16.78 693.73,-19.9 703.59,-23.77 703.85,-16.78"/>
</g>
<!-- 33&#45;&gt;32 -->
<g id="edge76" class="edge">
<title>33&#45;&gt;32</title>
<path fill="none" stroke="grey" stroke-width="2" d="M1219.44,-575.34C1210.3,-567.44 1199.33,-557.96 1189.26,-549.26"/>
<polygon fill="grey" stroke="grey" stroke-width="2" points="1191.73,-546.77 1181.88,-542.88 1187.16,-552.07 1191.73,-546.77"/>
</g>
<!-- 42 -->
<g id="node43" class="node">
<title>42</title>
<path fill="none" stroke="#5673d8" stroke-width="2" d="M1309.88,-324C1309.88,-324 1279.88,-324 1279.88,-324 1273.88,-324 1267.88,-318 1267.88,-312 1267.88,-312 1267.88,-300 1267.88,-300 1267.88,-294 1273.88,-288 1279.88,-288 1279.88,-288 1309.88,-288 1309.88,-288 1315.88,-288 1321.88,-294 1321.88,-300 1321.88,-300 1321.88,-312 1321.88,-312 1321.88,-318 1315.88,-324 1309.88,-324"/>
<text text-anchor="middle" x="1294.88" y="-304" font-family="sans" font-size="10.00">rna_qc</text>
</g>
<!-- 33&#45;&gt;42 -->
<g id="edge89" class="edge">
<title>33&#45;&gt;42</title>
<path fill="none" stroke="grey" stroke-width="2" d="M1244.91,-575.42C1247.76,-565.15 1251.26,-551.9 1253.88,-540 1269.69,-467.99 1283.49,-382.41 1290.32,-337.69"/>
<polygon fill="grey" stroke="grey" stroke-width="2" points="1293.76,-338.34 1291.79,-327.92 1286.84,-337.29 1293.76,-338.34"/>
</g>
<!-- 34 -->
<g id="node35" class="node">
<title>34</title>
<path fill="none" stroke="#569ad8" stroke-width="2" d="M1259.5,-684C1259.5,-684 1220.25,-684 1220.25,-684 1214.25,-684 1208.25,-678 1208.25,-672 1208.25,-672 1208.25,-660 1208.25,-660 1208.25,-654 1214.25,-648 1220.25,-648 1220.25,-648 1259.5,-648 1259.5,-648 1265.5,-648 1271.5,-654 1271.5,-660 1271.5,-660 1271.5,-672 1271.5,-672 1271.5,-678 1265.5,-684 1259.5,-684"/>
<text text-anchor="middle" x="1239.88" y="-664" font-family="sans" font-size="10.00">star_align</text>
</g>
<!-- 34&#45;&gt;33 -->
<g id="edge77" class="edge">
<title>34&#45;&gt;33</title>
<path fill="none" stroke="grey" stroke-width="2" d="M1239.88,-647.34C1239.88,-640.75 1239.88,-633.08 1239.88,-625.67"/>
<polygon fill="grey" stroke="grey" stroke-width="2" points="1243.38,-625.93 1239.88,-615.93 1236.38,-625.93 1243.38,-625.93"/>
</g>
<!-- 35 -->
<g id="node36" class="node">
<title>35</title>
<path fill="none" stroke="#d86e56" stroke-width="2" d="M1278.62,-756C1278.62,-756 1201.12,-756 1201.12,-756 1195.12,-756 1189.12,-750 1189.12,-744 1189.12,-744 1189.12,-732 1189.12,-732 1189.12,-726 1195.12,-720 1201.12,-720 1201.12,-720 1278.62,-720 1278.62,-720 1284.62,-720 1290.62,-726 1290.62,-732 1290.62,-732 1290.62,-744 1290.62,-744 1290.62,-750 1284.62,-756 1278.62,-756"/>
<text text-anchor="middle" x="1239.88" y="-736" font-family="sans" font-size="10.00">fastp_qc_trim_rna</text>
</g>
<!-- 35&#45;&gt;34 -->
<g id="edge78" class="edge">
<title>35&#45;&gt;34</title>
<path fill="none" stroke="grey" stroke-width="2" d="M1239.88,-719.34C1239.88,-712.75 1239.88,-705.08 1239.88,-697.67"/>
<polygon fill="grey" stroke="grey" stroke-width="2" points="1243.38,-697.93 1239.88,-687.93 1236.38,-697.93 1243.38,-697.93"/>
</g>
<!-- 36&#45;&gt;0 -->
<g id="edge12" class="edge">
<title>36&#45;&gt;0</title>
<path fill="none" stroke="grey" stroke-width="2" d="M727.42,-143.29C718.79,-133.41 708.46,-120.58 700.88,-108 689.62,-89.33 680.02,-66.73 673.28,-48.98"/>
<polygon fill="grey" stroke="grey" stroke-width="2" points="676.57,-47.79 669.84,-39.6 670,-50.19 676.57,-47.79"/>
</g>
<!-- 39 -->
<g id="node40" class="node">
<title>39</title>
<path fill="none" stroke="#70d856" stroke-width="2" d="M907.62,-108C907.62,-108 722.12,-108 722.12,-108 716.12,-108 710.12,-102 710.12,-96 710.12,-96 710.12,-84 710.12,-84 710.12,-78 716.12,-72 722.12,-72 722.12,-72 907.62,-72 907.62,-72 913.62,-72 919.62,-78 919.62,-84 919.62,-84 919.62,-96 919.62,-96 919.62,-102 913.62,-108 907.62,-108"/>
<text text-anchor="middle" x="814.88" y="-88" font-family="sans" font-size="10.00">generate_phase_aware_neoantigen_fasta</text>
</g>
<!-- 36&#45;&gt;39 -->
<g id="edge84" class="edge">
<title>36&#45;&gt;39</title>
<path fill="none" stroke="grey" stroke-width="2" d="M761.79,-143.34C769.64,-135.6 779.01,-126.36 787.69,-117.81"/>
<polygon fill="grey" stroke="grey" stroke-width="2" points="789.9,-120.54 794.56,-111.03 784.98,-115.56 789.9,-120.54"/>
</g>
<!-- 37&#45;&gt;36 -->
<g id="edge79" class="edge">
<title>37&#45;&gt;36</title>
<path fill="none" stroke="grey" stroke-width="2" d="M762.57,-215.34C760.16,-208.59 757.34,-200.69 754.63,-193.11"/>
<polygon fill="grey" stroke="grey" stroke-width="2" points="757.95,-191.99 751.29,-183.75 751.35,-194.35 757.95,-191.99"/>
</g>
<!-- 38&#45;&gt;37 -->
<g id="edge82" class="edge">
<title>38&#45;&gt;37</title>
<path fill="none" stroke="grey" stroke-width="2" d="M832.43,-287.34C822.74,-279.36 811.09,-269.77 800.43,-260.99"/>
<polygon fill="grey" stroke="grey" stroke-width="2" points="802.89,-258.48 792.95,-254.83 798.44,-263.88 802.89,-258.48"/>
</g>
<!-- 38&#45;&gt;39 -->
<g id="edge85" class="edge">
<title>38&#45;&gt;39</title>
<path fill="none" stroke="grey" stroke-width="2" d="M850.62,-287.12C843.96,-250.62 828.75,-167.13 820.48,-121.74"/>
<polygon fill="grey" stroke="grey" stroke-width="2" points="823.93,-121.17 818.69,-111.96 817.04,-122.42 823.93,-121.17"/>
</g>
<!-- 39&#45;&gt;0 -->
<g id="edge7" class="edge">
<title>39&#45;&gt;0</title>
<path fill="none" stroke="grey" stroke-width="2" d="M776.13,-71.15C753.46,-60.72 724.92,-47.57 702.16,-37.09"/>
<polygon fill="grey" stroke="grey" stroke-width="2" points="703.82,-34 693.27,-33 700.89,-40.36 703.82,-34"/>
</g>
<!-- 40 -->
<g id="node41" class="node">
<title>40</title>
<path fill="none" stroke="#56d0d8" stroke-width="2" d="M566.12,-396C566.12,-396 467.62,-396 467.62,-396 461.62,-396 455.62,-390 455.62,-384 455.62,-384 455.62,-372 455.62,-372 455.62,-366 461.62,-360 467.62,-360 467.62,-360 566.12,-360 566.12,-360 572.12,-360 578.12,-366 578.12,-372 578.12,-372 578.12,-384 578.12,-384 578.12,-390 572.12,-396 566.12,-396"/>
<text text-anchor="middle" x="516.88" y="-376" font-family="sans" font-size="10.00">process_manta_results</text>
</g>
<!-- 40&#45;&gt;0 -->
<g id="edge16" class="edge">
<title>40&#45;&gt;0</title>
<path fill="none" stroke="grey" stroke-width="2" d="M522.26,-359.26C529.88,-332.56 542.88,-280.36 542.88,-235 542.88,-235 542.88,-235 542.88,-161 542.88,-109.52 589.46,-67.07 624.58,-42.37"/>
<polygon fill="grey" stroke="grey" stroke-width="2" points="626.22,-45.49 632.54,-36.99 622.29,-39.69 626.22,-45.49"/>
</g>
<!-- 41&#45;&gt;40 -->
<g id="edge86" class="edge">
<title>41&#45;&gt;40</title>
<path fill="none" stroke="grey" stroke-width="2" d="M516.88,-1007.07C516.88,-980.13 516.88,-927.62 516.88,-883 516.88,-883 516.88,-883 516.88,-521 516.88,-482.65 516.88,-438.48 516.88,-409.72"/>
<polygon fill="grey" stroke="grey" stroke-width="2" points="520.38,-409.96 516.88,-399.96 513.38,-409.96 520.38,-409.96"/>
</g>
<!-- 42&#45;&gt;0 -->
<g id="edge10" class="edge">
<title>42&#45;&gt;0</title>
<path fill="none" stroke="grey" stroke-width="2" d="M1298.12,-287.08C1304.98,-242.99 1315.58,-128.68 1253.88,-72 1213.43,-34.85 830.34,-22.82 703.46,-19.83"/>
<polygon fill="grey" stroke="grey" stroke-width="2" points="703.75,-16.34 693.67,-19.61 703.59,-23.34 703.75,-16.34"/>
</g>
</g>
</svg>
